<svg width="35" height="10" viewBox="0 0 35 10" fill="none" xmlns="http://www.w3.org/2000/svg">
<path d="M1.41477 9H0.306818L3.51136 0.272727H4.60227L7.80682 9H6.69886L4.09091 1.65341H4.02273L1.41477 9ZM1.82386 5.59091H6.28977V6.52841H1.82386V5.59091ZM11.5014 9.13636C10.956 9.13636 10.4744 8.99858 10.0568 8.72301C9.6392 8.4446 9.3125 8.05256 9.0767 7.54688C8.84091 7.03835 8.72301 6.4375 8.72301 5.74432C8.72301 5.05682 8.84091 4.46023 9.0767 3.95455C9.3125 3.44886 9.64063 3.05824 10.0611 2.78267C10.4815 2.5071 10.9673 2.36932 11.5185 2.36932C11.9446 2.36932 12.2813 2.44034 12.5284 2.58239C12.7784 2.72159 12.9688 2.88068 13.0994 3.05966C13.233 3.2358 13.3366 3.38068 13.4105 3.49432H13.4957V0.272727H14.5014V9H13.5298V7.99432H13.4105C13.3366 8.11364 13.2315 8.2642 13.0952 8.44602C12.9588 8.625 12.7642 8.78551 12.5114 8.92756C12.2585 9.06676 11.9219 9.13636 11.5014 9.13636ZM11.6378 8.23295C12.0412 8.23295 12.3821 8.12784 12.6605 7.91761C12.9389 7.70455 13.1506 7.41051 13.2955 7.03551C13.4403 6.65767 13.5128 6.22159 13.5128 5.72727C13.5128 5.23864 13.4418 4.81108 13.2997 4.4446C13.1577 4.07528 12.9474 3.78835 12.669 3.58381C12.3906 3.37642 12.0469 3.27273 11.6378 3.27273C11.2116 3.27273 10.8565 3.3821 10.5724 3.60085C10.2912 3.81676 10.0795 4.1108 9.9375 4.48295C9.7983 4.85227 9.72869 5.26705 9.72869 5.72727C9.72869 6.19318 9.79972 6.61648 9.94176 6.99716C10.0866 7.375 10.2997 7.67614 10.581 7.90057C10.8651 8.12216 11.2173 8.23295 11.6378 8.23295ZM16.483 9V2.45455H17.4545V3.47727H17.5398C17.6761 3.12784 17.8963 2.85653 18.2003 2.66335C18.5043 2.46733 18.8693 2.36932 19.2955 2.36932C19.7273 2.36932 20.0866 2.46733 20.3736 2.66335C20.6634 2.85653 20.8892 3.12784 21.0511 3.47727H21.1193C21.2869 3.1392 21.5384 2.87074 21.8736 2.67188C22.2088 2.47017 22.6108 2.36932 23.0795 2.36932C23.6648 2.36932 24.1435 2.55256 24.5156 2.91903C24.8878 3.28267 25.0739 3.84943 25.0739 4.61932V9H24.0682V4.61932C24.0682 4.13636 23.9361 3.79119 23.6719 3.58381C23.4077 3.37642 23.0966 3.27273 22.7386 3.27273C22.2784 3.27273 21.9219 3.41193 21.669 3.69034C21.4162 3.96591 21.2898 4.31534 21.2898 4.73864V9H20.267V4.51705C20.267 4.14489 20.1463 3.84517 19.9048 3.6179C19.6634 3.38778 19.3523 3.27273 18.9716 3.27273C18.7102 3.27273 18.4659 3.34233 18.2386 3.48153C18.0142 3.62074 17.8324 3.81392 17.6932 4.06108C17.5568 4.3054 17.4886 4.58807 17.4886 4.90909V9H16.483ZM26.9126 9V2.45455H27.9183V9H26.9126ZM27.424 1.36364C27.228 1.36364 27.0589 1.29688 26.9169 1.16335C26.7777 1.02983 26.7081 0.869318 26.7081 0.681818C26.7081 0.494318 26.7777 0.333807 26.9169 0.200284C27.0589 0.0667613 27.228 0 27.424 0C27.62 0 27.7876 0.0667613 27.9268 0.200284C28.0689 0.333807 28.1399 0.494318 28.1399 0.681818C28.1399 0.869318 28.0689 1.02983 27.9268 1.16335C27.7876 1.29688 27.62 1.36364 27.424 1.36364ZM30.766 5.0625V9H29.7603V2.45455H30.7319V3.47727H30.8171C30.9705 3.14489 31.2035 2.87784 31.516 2.67614C31.8285 2.47159 32.2319 2.36932 32.7262 2.36932C33.1694 2.36932 33.5572 2.46023 33.8896 2.64205C34.2219 2.82102 34.4805 3.09375 34.6651 3.46023C34.8498 3.82386 34.9421 4.28409 34.9421 4.84091V9H33.9364V4.90909C33.9364 4.39489 33.8029 3.99432 33.5359 3.70739C33.2688 3.41761 32.9023 3.27273 32.4364 3.27273C32.1154 3.27273 31.8285 3.34233 31.5756 3.48153C31.3256 3.62074 31.1282 3.82386 30.9833 4.09091C30.8384 4.35795 30.766 4.68182 30.766 5.0625Z" fill="black"/>
</svg>
